<svg xmlns="http://www.w3.org/2000/svg" width="1360" height="700" viewBox="0 0 1360 700" role="img" aria-labelledby="title desc">
  <title id="title">Neural asset services</title>
  <desc id="desc">A schematic for routing source evidence to NVIDIA skills, Content Agents, NuRec, and SimReady or dataset handoff.</desc>
  <defs>
    <style>
      .bg { fill: transparent; }
      .box { fill: #0a100c; stroke: #3d4a42; stroke-width: 2; }
      .boxHot { fill: #0b1608; stroke: #76b900; stroke-width: 2.3; }
      .boxAccent { fill: #160929; stroke: #5f1ebe; stroke-width: 2.3; }
      .inner { fill: #0d130f; stroke: #7d8780; stroke-width: 1.9; }
      .innerHot { fill: #0d1809; stroke: #76b900; stroke-width: 1.9; }
      .innerAccent { fill: #1b0c31; stroke: #5f1ebe; stroke-width: 1.9; }
      .label { fill: #edf3ef; font-family: Aptos, Helvetica, sans-serif; font-size: 20px; font-weight: 680; }
      .small { fill: #c6cec8; font-family: Aptos, Helvetica, sans-serif; font-size: 13px; font-weight: 620; }
      .line { stroke: #e6ece8; stroke-width: 2.2; fill: none; marker-end: url(#arrow); }
      .greenLine { stroke: #76b900; stroke-width: 2.4; fill: none; marker-end: url(#arrowGreen); }
      .accentLine { stroke: #5f1ebe; stroke-width: 2.4; fill: none; marker-end: url(#arrowAccent); }
    </style>
    <marker id="arrow" viewBox="0 0 8 8" refX="7" refY="4" markerWidth="5" markerHeight="5" orient="auto-start-reverse">
      <path d="M 0 1 L 8 4 L 0 7 z" fill="#e6ece8"/>
    </marker>
    <marker id="arrowGreen" viewBox="0 0 8 8" refX="7" refY="4" markerWidth="5" markerHeight="5" orient="auto-start-reverse">
      <path d="M 0 1 L 8 4 L 0 7 z" fill="#76b900"/>
    </marker>
    <marker id="arrowAccent" viewBox="0 0 8 8" refX="7" refY="4" markerWidth="5" markerHeight="5" orient="auto-start-reverse">
      <path d="M 0 1 L 8 4 L 0 7 z" fill="#5f1ebe"/>
    </marker>
  </defs>
  <rect class="bg" x="0" y="0" width="1360" height="700"/>
  <rect class="box" x="56" y="260" width="244" height="180" rx="8"/>
  <text class="label" x="178.0" y="303" text-anchor="middle">Evidence</text>
  <rect class="innerAccent" x="84" y="332" width="188" height="22" rx="4"/>
  <text class="small" x="178.0" y="347.5" text-anchor="middle" style="font-size:13px">sensors</text>
  <rect class="inner" x="84" y="366" width="188" height="22" rx="4"/>
  <text class="small" x="178.0" y="381.5" text-anchor="middle" style="font-size:13px">CAD/OpenUSD</text>
  <rect class="inner" x="84" y="400" width="188" height="22" rx="4"/>
  <text class="small" x="178.0" y="415.5" text-anchor="middle" style="font-size:13px">video gaps</text>
  <rect class="boxAccent" x="392" y="242" width="252" height="216" rx="8"/>
  <text class="label" x="518.0" y="285" text-anchor="middle">Route selector</text>
  <rect class="inner" x="420" y="314" width="196" height="34" rx="4"/>
  <text class="small" x="518.0" y="335.5" text-anchor="middle" style="font-size:13px">rights</text>
  <rect class="innerAccent" x="420" y="360" width="196" height="34" rx="4"/>
  <text class="small" x="518.0" y="381.0" text-anchor="middle" style="font-size:12px">service surface</text>
  <rect class="inner" x="420" y="406" width="196" height="34" rx="4"/>
  <text class="small" x="518.0" y="427.5" text-anchor="middle" style="font-size:13px">validation</text>
  <path class="accentLine" d="M300 350 L392 350"/>
  <rect class="boxHot" x="740" y="44" width="274" height="144" rx="8"/>
  <text class="label" x="877.0" y="87" text-anchor="middle">NVIDIA/skills</text>
  <rect class="innerHot" x="768" y="106" width="218" height="16" rx="4"/>
  <text class="small" x="877.0" y="117.0" text-anchor="middle" style="font-size:10px">CAD-to-SimReady</text>
  <rect class="inner" x="768" y="130" width="218" height="16" rx="4"/>
  <text class="small" x="877.0" y="141.0" text-anchor="middle" style="font-size:10px">video aug</text>
  <rect class="inner" x="768" y="154" width="218" height="16" rx="4"/>
  <text class="small" x="877.0" y="165.0" text-anchor="middle" style="font-size:10px">defect gen</text>
  <path class="greenLine" d="M644 350 L696 350 L696 116 L740 116"/>
  <rect class="boxAccent" x="740" y="200" width="274" height="144" rx="8"/>
  <text class="label" x="877.0" y="243" text-anchor="middle">Content Agents</text>
  <rect class="innerAccent" x="768" y="262" width="218" height="16" rx="4"/>
  <text class="small" x="877.0" y="273.0" text-anchor="middle" style="font-size:10px">material</text>
  <rect class="inner" x="768" y="286" width="218" height="16" rx="4"/>
  <text class="small" x="877.0" y="297.0" text-anchor="middle" style="font-size:10px">physics</text>
  <rect class="inner" x="768" y="310" width="218" height="16" rx="4"/>
  <text class="small" x="877.0" y="321.0" text-anchor="middle" style="font-size:10px">validation</text>
  <path class="accentLine" d="M644 350 L696 350 L696 272 L740 272"/>
  <rect class="boxHot" x="740" y="356" width="274" height="144" rx="8"/>
  <text class="label" x="877.0" y="399" text-anchor="middle">Omniverse RTX</text>
  <rect class="innerAccent" x="768" y="418" width="218" height="16" rx="4"/>
  <text class="small" x="877.0" y="429.0" text-anchor="middle" style="font-size:10px">preview</text>
  <rect class="inner" x="768" y="442" width="218" height="16" rx="4"/>
  <text class="small" x="877.0" y="453.0" text-anchor="middle" style="font-size:10px">video</text>
  <rect class="inner" x="768" y="466" width="218" height="16" rx="4"/>
  <text class="small" x="877.0" y="477.0" text-anchor="middle" style="font-size:10px">sensor sim</text>
  <path class="greenLine" d="M644 350 L696 350 L696 428 L740 428"/>
  <rect class="boxHot" x="740" y="512" width="274" height="144" rx="8"/>
  <text class="label" x="877.0" y="555" text-anchor="middle">NuRec/NRE</text>
  <rect class="innerHot" x="768" y="574" width="218" height="16" rx="4"/>
  <text class="small" x="877.0" y="585.0" text-anchor="middle" style="font-size:10px">ncore</text>
  <rect class="innerHot" x="768" y="598" width="218" height="16" rx="4"/>
  <text class="small" x="877.0" y="609.0" text-anchor="middle" style="font-size:10px">nre</text>
  <rect class="inner" x="768" y="622" width="218" height="16" rx="4"/>
  <text class="small" x="877.0" y="633.0" text-anchor="middle" style="font-size:10px">harvest</text>
  <path class="line" d="M644 350 L696 350 L696 584 L740 584"/>
  <rect class="boxAccent" x="1158" y="264" width="156" height="172" rx="8"/>
  <text class="label" x="1236.0" y="307" text-anchor="middle">Handoff</text>
  <rect class="innerHot" x="1186" y="336" width="100" height="19" rx="4"/>
  <text class="small" x="1236.0" y="350.0" text-anchor="middle" style="font-size:13px">SimReady</text>
  <rect class="inner" x="1186" y="367" width="100" height="19" rx="4"/>
  <text class="small" x="1236.0" y="381.0" text-anchor="middle" style="font-size:13px">dataset</text>
  <rect class="inner" x="1186" y="398" width="100" height="19" rx="4"/>
  <text class="small" x="1236.0" y="412.0" text-anchor="middle" style="font-size:13px">eval</text>
  <path class="greenLine" d="M1014 116 L1090 116 L1090 350 L1158 350"/>
  <path class="accentLine" d="M1014 272 L1090 272 L1090 350 L1158 350"/>
  <path class="greenLine" d="M1014 428 L1090 428 L1090 350 L1158 350"/>
  <path class="line" d="M1014 584 L1090 584 L1090 350 L1158 350"/>
</svg>
